<?xml version="1.0" encoding="UTF-8"?>
<svg width="499px" height="178px" viewBox="0 0 499 178" version="1.1" xmlns="http://www.w3.org/2000/svg" xmlns:xlink="http://www.w3.org/1999/xlink">
    <!-- Generator: Sketch 50.2 (55047) - http://www.bohemiancoding.com/sketch -->
    <title>logo-engine</title>
    <desc>Created with Sketch.</desc>
    <defs></defs>
    <g id="Page-1" stroke="none" stroke-width="1" fill="none" fill-rule="evenodd">
        <g id="logo-engine">
            <rect id="Rectangle" fill="#D0021B" x="0.328125" y="0" width="498.277344" height="178"></rect>
            <g transform="translate(11.966797, 12.000000)" fill="#FFFFFF" fill-rule="nonzero" id="engine-logo-normal">
                <path d="M0.953125,153.347656 L0.953125,0.34765625 L473.953125,0.34765625 L473.953125,153.347656 L0.953125,153.347656 Z M35.6397917,40.8910283 L35.6397917,112.772735 L98.2887983,112.772735 L98.2887983,99.1064363 L50.4264813,99.1064363 L50.4264813,81.4108482 L77.7085239,81.4108482 L77.7085239,67.7395063 L50.4264813,67.7395063 L50.4264813,54.5573272 L95.5068337,54.5573272 L95.5068337,40.8910283 L35.6397917,40.8910283 Z M125.922075,68.7178322 L165.246629,112.772735 L173.968798,112.772735 L173.968798,40.8910283 L159.376831,40.8910283 L159.376831,84.9408892 L120.181227,40.8910283 L111.319792,40.8910283 L111.319792,112.772735 L125.922075,112.772735 L125.922075,68.7178322 Z M184.740655,76.3210592 C184.740655,98.5218512 200.72949,114.610726 222.396076,114.610726 C236.654451,114.610726 248.301777,107.854636 255.725348,95.0227023 L255.725348,70.8327023 L223.030919,70.8327023 L223.030919,84.7983812 L241.236586,84.7983812 L241.236586,90.5341012 C236.531578,97.2592722 230.331617,100.505906 222.396076,100.505906 C209.392029,100.505906 199.475162,90.6577833 199.475162,76.3210592 C199.475162,61.9740302 209.392029,51.9919192 222.396076,51.9919192 C231.094453,51.9919192 238.390031,56.2383103 243.59677,66.3337953 L255.85846,57.6142642 C247.303435,44.1433103 235.794341,37.9077113 222.396076,37.9077113 C200.72949,37.9077113 184.740655,54.1151143 184.740655,76.3210592 Z M269.233686,113.093569 L283.845321,113.093569 L283.845321,39.0290883 L269.233686,39.0290883 L269.233686,113.093569 Z M314.703311,67.8365232 L353.725693,112.856513 L362.398471,112.856513 L362.398471,39.4001323 L347.90459,39.4001323 L347.90459,84.4149693 L308.999961,39.4001323 L300.20431,39.4001323 L300.20431,112.856513 L314.703311,112.856513 L314.703311,67.8365232 Z M378.629468,39.4021943 L378.629468,112.858575 L440.086392,112.858575 L440.086392,98.8928952 L393.12335,98.8928952 L393.12335,80.8096603 L419.894281,80.8096603 L419.894281,66.8388273 L393.12335,66.8388273 L393.12335,53.3678733 L440.055674,53.3678733 L440.055674,39.4021943 L378.629468,39.4021943 Z"></path>
            </g>
        </g>
    </g>
</svg>