<?xml version="1.0" encoding="UTF-8" standalone="no"?>
<svg
   xmlns:dc="http://purl.org/dc/elements/1.1/"
   xmlns:cc="http://creativecommons.org/ns#"
   xmlns:rdf="http://www.w3.org/1999/02/22-rdf-syntax-ns#"
   xmlns:svg="http://www.w3.org/2000/svg"
   xmlns="http://www.w3.org/2000/svg"
   viewBox="0 0 191.1375 123.7"
   height="123.7"
   width="191.1375"
   xml:space="preserve"
   version="1.1"
   id="svg2"><metadata
     id="metadata8"><rdf:RDF><cc:Work
         rdf:about=""><dc:format>image/svg+xml</dc:format><dc:type
           rdf:resource="http://purl.org/dc/dcmitype/StillImage" /></cc:Work></rdf:RDF></metadata><defs
     id="defs6"><clipPath
       id="clipPath18"
       clipPathUnits="userSpaceOnUse"><path
         id="path20"
         d="m 0,0 1529,0 0,989.566 -1529,0 L 0,0 Z" /></clipPath></defs><g
     transform="matrix(1.25,0,0,-1.25,0,123.7)"
     id="g10"><g
       transform="scale(0.1,0.1)"
       id="g12"><g
         id="g14"><g
           clip-path="url(#clipPath18)"
           id="g16"><path
             id="path22"
             style="fill:#2152a2;fill-opacity:1;fill-rule:evenodd;stroke:none"
             d="m 221.777,740.309 c 101.094,0 154.844,-31.399 177.793,-75.332 0,-197.321 0,-394.625 0,-591.9301 -38.359,0 -157.226,15.332 -177.793,110.8591 l 0,556.403" /><path
             id="path24"
             style="fill:#2152a2;fill-opacity:1;fill-rule:evenodd;stroke:none"
             d="m 310.664,989.566 c 49.102,0 88.906,-39.8 88.906,-88.894 0,-49.094 -39.804,-88.895 -88.906,-88.895 -49.102,0 -88.887,39.801 -88.887,88.895 0,49.094 39.785,88.894 88.887,88.894 l 0,0" /><path
             id="path26"
             style="fill:#fab538;fill-opacity:1;fill-rule:evenodd;stroke:none"
             d="m 295.859,412.031 485.297,346.91 c 142.239,91.743 39.297,106.707 -86.64,118.778 -127.075,12.187 -277.719,21.113 -261.782,22.105 l 395.375,24.864 c 119.172,0 194.781,-99.555 90.911,-197.618 L 320.801,222.07 0,508.617 l 295.859,-96.586 0,0" /><path
             id="path28"
             style="fill:#2152a2;fill-opacity:1;fill-rule:nonzero;stroke:none"
             d="m 588.594,95.5469 c -38.672,0 -75.332,34.2771 -75.332,85.7031 l 0,0.859 c 0,50.567 36.66,85.274 75.332,85.274 39.472,0 73.32,-33.438 73.32,-85.703 l 0,-0.86 c 0,-53.554 -33.047,-85.2731 -73.32,-85.2731 l 0,0 z M 483.457,16.6992 C 483.457,7.28516 490.293,0 499.16,0 c 8.867,0 15.313,7.28516 15.313,16.6992 l 0,96.4058 c 16.113,-24.8433 41.074,-47.1284 79.765,-47.1284 50.352,0 99.496,42.8514 99.496,115.2734 l 0,0.859 c 0,72.832 -49.554,114.825 -99.496,114.825 -38.281,0 -62.851,-22.715 -79.765,-49.278 l 0,30 c 0,9.434 -6.856,16.719 -15.723,16.719 -8.457,0 -15.293,-7.285 -15.293,-16.719 l 0,-260.9568" /><path
             id="path30"
             style="fill:#2152a2;fill-opacity:1;fill-rule:nonzero;stroke:none"
             d="m 734.203,85.2734 c 0,-9.4336 6.836,-16.7187 15.703,-16.7187 8.867,0 15.313,7.7148 15.313,16.7187 l 0,75.4106 c 0,63.847 33.027,95.976 73.32,101.113 8.047,1.289 13.691,7.715 13.691,16.719 0,9.433 -6.035,16.699 -15.312,16.699 -26.172,0 -56.387,-22.266 -71.699,-59.121 l 0,41.562 c 0,9.434 -6.856,16.719 -15.723,16.719 -8.457,0 -15.293,-7.715 -15.293,-16.719 l 0,-192.3826" /><path
             id="path32"
             style="fill:#2152a2;fill-opacity:1;fill-rule:nonzero;stroke:none"
             d="m 967.613,95.1172 c -43.906,0 -76.953,38.5738 -76.953,86.1328 l 0,0.859 c 0,46.7 31.016,85.684 76.133,85.684 43.927,0 77.367,-38.984 77.367,-86.543 l 0,-0.859 c 0,-46.7 -31.43,-85.2738 -76.547,-85.2738 l 0,0 z m -0.82,-29.5703 c 62.847,0 109.177,53.1441 109.177,115.7031 l 0,0.859 c 0,62.559 -45.92,114.825 -108.357,114.825 -62.851,0 -108.761,-53.125 -108.761,-115.684 l 0,-0.859 c 0,-62.559 45.5,-114.8441 107.941,-114.8441 l 0,0" /><path
             id="path34"
             style="fill:#2152a2;fill-opacity:1;fill-rule:nonzero;stroke:none"
             d="m 1211.11,95.1172 c -43.93,0 -76.95,38.5738 -76.95,86.1328 l 0,0.859 c 0,46.7 31.01,85.684 76.13,85.684 43.92,0 77.36,-38.984 77.36,-86.543 l 0,-0.859 c 0,-46.7 -31.42,-85.2738 -76.54,-85.2738 l 0,0 z m -0.82,-29.5703 c 62.85,0 109.18,53.1441 109.18,115.7031 l 0,0.859 c 0,62.559 -45.92,114.825 -108.36,114.825 -62.85,0 -108.77,-53.125 -108.77,-115.684 l 0,-0.859 c 0,-62.559 45.51,-114.8441 107.95,-114.8441 l 0,0" /><path
             id="path36"
             style="fill:#2152a2;fill-opacity:1;fill-rule:nonzero;stroke:none"
             d="m 1448.96,81.4062 78.55,188.5348 c 0.81,2.149 1.61,5.137 1.61,8.145 0,9.004 -6.84,16.289 -15.32,16.289 -8.04,0 -12.48,-5.586 -14.49,-12.012 l -68.48,-173.965 -67.28,173.106 c -2.42,7.285 -6.84,12.871 -15.7,12.871 -8.87,0 -15.73,-7.715 -15.73,-16.289 0,-3.008 1.21,-5.996 2.02,-9.004 L 1412.3,81.4062 c 3.63,-8.5742 9.26,-14.1406 17.71,-14.1406 l 1.63,0 c 8.45,0 13.69,5.5664 17.32,14.1406 l 0,0" /></g></g></g></g></svg>